#!OML:ASF X:\für Bonn\!DataBase\2005_08_11_Bastian_Final\c3d\Bastian.ASF
:FULLY-SPECIFIED
:DEGREES
76
root -0.0204213 6.17908 6.25241 161.37 -7.58656 -173.889
lowerback 33.9725 -2.00113 5.09132
upperback 8.19001 -3.23724 1.71656
thorax -8.25587 -2.67616 0.455672
lowerneck -11.2306 -5.4889 -5.16021
upperneck -11.4889 -7.832 11.4646
head -1.07114 -4.5204 4.50192
rclavicle 5.02677e-014 -3.11098e-014
rhumerus 69.8999 10.62 2.55062
rradius 39.7875
rwrist -56.0199
rhand -44.8405 -4.66192
rfingers 7.12502
rthumb -17.6302 -33.8826
lclavicle 5.02677e-014 -3.11098e-014
lhumerus 63.5458 -13.252 -10.2933
lradius 32.976
lwrist 9.49525
lhand -44.9869 15.9513
lfingers 7.12502
lthumb -17.771 45.1593
rfemur 67.6387 -57.0261 -109.071
rtibia 162.709
rfoot -58.3332 2.04873
rtoes 13.833
lfemur -47.784 63.0371 22.3394
ltibia 164.597
lfoot -45.1382 -32.0729
ltoes 2.23986
77
root -0.0225824 6.12726 6.25615 161.316 -7.48215 -173.84
lowerback 34.1365 -1.9634 5.16471
upperback 8.25288 -3.19068 1.74225
thorax -8.24466 -2.6699 0.433762
lowerneck -11.2316 -5.47589 -5.03855
upperneck -11.6283 -7.84095 11.4226
head -1.12417 -4.54098 4.46839
rclavicle 2.6985e-014 -1.32192e-014
rhumerus 69.8577 10.4583 3.01424
rradius 39.9784
rwrist -56.5411
rhand -45.1835 -4.58204
rfingers 7.12502
rthumb -17.9602 -33.7728
lclavicle 2.6985e-014 -1.32192e-014
lhumerus 63.3744 -13.0424 -9.64078
lradius 32.8892
lwrist 9.46725
lhand -44.7778 15.5373
lfingers 7.12502
lthumb -17.5698 44.7634
rfemur 68.7565 -56.0943 -110.324
rtibia 163.108
rfoot -58.1179 1.85777
rtoes 14.1965
lfemur -47.6639 63.9014 22.9767
ltibia 165.048
lfoot -44.6262 -31.9991
ltoes 2.79345
78
root -0.0242238 6.08613 6.26016 161.288 -7.36876 -173.792
lowerback 34.2848 -1.92375 5.21942
upperback 8.29445 -3.14011 1.77619
thorax -8.25015 -2.65909 0.428761
lowerneck -11.2199 -5.45469 -4.9262
upperneck -11.7425 -7.83512 11.3711
head -1.17217 -4.55137 4.43373
rclavicle -1.27719e-014 -8.44835e-015
rhumerus 69.8546 10.3581 3.37221
rradius 40.0869
rwrist -56.6912
rhand -45.4083 -4.75607
rfingers 7.12502
rthumb -18.1765 -33.9268
lclavicle -1.27719e-014 -8.44835e-015
lhumerus 63.2163 -12.9343 -9.11064
lradius 32.8429
lwrist 9.4751
lhand -44.5807 15.223
lfingers 7.12502
lthumb -17.3801 44.466
rfemur 69.6646 -55.306 -111.318
rtibia 163.426
rfoot -57.949 1.7096
rtoes 14.5428
lfemur -47.5386 64.7098 23.518
ltibia 165.421
lfoot -44.2757 -31.7942
ltoes 3.13267
79
root -0.0246556 6.05845 6.26674 161.293 -7.26897 -173.745
lowerback 34.4091 -1.89152 5.28534
upperback 8.34465 -3.09811 1.79708
thorax -8.23807 -2.65187 0.405583
lowerneck -11.2426 -5.4361 -4.78147
upperneck -11.8528 -7.83895 11.3171
head -1.21359 -4.56839 4.39019
rclavicle -3.40916e-014 2.48481e-014
rhumerus 69.8394 10.2598 3.64975
rradius 40.1586
rwrist -56.6331
rhand -45.5631 -5.09628
rfingers 7.12502
rthumb -18.3254 -34.2531
lclavicle -3.40916e-014 2.48481e-014
lhumerus 63.0901 -12.8681 -8.87988
lradius 32.874
lwrist 9.63737
lhand -44.4286 15.0588
lfingers 7.12502
lthumb -17.2337 44.3147
rfemur 70.3321 -54.8774 -111.977
rtibia 163.628
rfoot -57.8092 1.68764
rtoes 14.8781
lfemur -47.8607 65.2012 23.4856
ltibia 165.671
lfoot -43.9931 -31.567
ltoes 3.24586
80
root -0.0242232 6.04254 6.27426 161.33 -7.16811 -173.711
lowerback 34.501 -1.85151 5.34112
upperback 8.3926 -3.04792 1.82046
thorax -8.21599 -2.63924 0.385565
lowerneck -11.2771 -5.42878 -4.64611
upperneck -11.9662 -7.85787 11.2454
head -1.25328 -4.59235 4.34111
rclavicle -1.24489e-014 1.2424e-014
rhumerus 69.8319 10.1809 3.83749
rradius 40.1261
rwrist -56.3021
rhand -45.578 -5.54789
rfingers 7.12502
rthumb -18.3398 -34.7033
lclavicle -1.24489e-014 1.2424e-014
lhumerus 62.9972 -12.8877 -8.93582
lradius 32.9849
lwrist 9.94282
lhand -44.365 15.0673
lfingers 7.12502
lthumb -17.1725 44.3285
rfemur 70.8903 -54.5446 -112.54
rtibia 163.74
rfoot -57.7661 1.7338
rtoes 15.1635
lfemur -48.1404 65.5951 23.3795
ltibia 165.825
lfoot -43.883 -31.3718
ltoes 3.41155
